<svg version="1.1" id="Layer_1" xmlns="http://www.w3.org/2000/svg" xmlns:xlink="http://www.w3.org/1999/xlink" x="0px" y="0px"
	 width="100%" viewBox="0 0 618 404" enable-background="new 0 0 618 404" xml:space="preserve">
<path fill="#FFFFFF" opacity="1.000000" stroke="none" 
	d="
M458.000000,405.000000 
	C305.370514,405.000000 153.241058,405.000000 1.055793,405.000000 
	C1.055793,270.403473 1.055793,135.806900 1.055793,1.105170 
	C206.879486,1.105170 412.759064,1.105170 618.819336,1.105170 
	C618.819336,135.666458 618.819336,270.333221 618.819336,405.000000 
	C565.473511,405.000000 511.986755,405.000000 458.000000,405.000000 
M409.977692,258.765472 
	C424.280518,258.546814 438.587891,258.470856 452.883057,258.013031 
	C456.635986,257.892822 460.438202,256.870941 464.059296,255.750778 
	C467.774200,254.601608 469.283417,250.997498 468.621429,247.804581 
	C468.188141,245.714737 465.208130,242.826187 463.154938,242.638824 
	C455.975616,241.983597 448.703400,242.346390 440.706543,242.114334 
	C438.126892,241.060120 435.547272,240.005890 432.903259,238.094330 
	C433.622040,201.459259 419.876465,172.931213 385.705414,156.894699 
	C373.937317,151.371918 361.194672,147.809113 348.707855,143.966278 
	C335.580780,139.926422 322.226868,136.623505 308.952728,132.192352 
	C308.198547,130.084854 307.444336,127.977364 306.898529,125.136101 
	C310.382874,116.837509 309.397430,111.131439 303.915741,107.864937 
	C297.762299,104.198135 289.381714,106.499054 285.208527,113.001099 
	C281.104584,119.395271 282.369904,124.834930 289.107635,129.574768 
	C289.620361,129.935455 290.318420,130.032608 290.930359,130.252243 
	C289.500122,131.583710 288.761841,131.831894 288.006958,132.009537 
	C274.101776,135.281830 260.152283,138.376877 246.297241,141.849060 
	C222.750977,147.749908 201.492783,157.706345 185.733459,177.068787 
	C173.400864,192.221054 165.420151,209.027405 166.035080,229.059555 
	C166.098022,231.110458 166.807251,233.141541 167.216583,235.181808 
	C167.871368,235.123459 168.526154,235.065109 169.180939,235.006760 
	C169.382416,233.388077 169.664246,231.774628 169.770218,230.149704 
	C170.083649,225.344666 169.690216,220.396118 170.703278,215.750092 
	C176.794235,187.816376 193.709869,168.158356 218.835464,155.586975 
	C241.841064,144.076324 267.347839,140.846252 292.035919,135.719208 
	C290.116180,138.253937 288.701996,141.680496 286.161713,143.120514 
	C282.048401,145.452255 277.278198,146.796616 272.641235,148.004623 
	C248.344345,154.334366 225.140717,163.134842 204.770050,178.180298 
	C192.662628,187.122665 183.477142,198.325684 181.348114,213.790482 
	C180.130508,222.634827 179.823135,231.604507 178.463455,240.744492 
	C177.063522,241.726639 175.663605,242.708786 173.760773,244.307190 
	C169.338333,244.912048 164.866653,246.253540 160.504105,245.962067 
	C152.457214,245.424393 147.833069,247.565033 146.148026,253.524033 
	C144.139313,252.046585 142.130615,250.569138 140.121918,249.091675 
	C142.177856,247.434906 144.009628,244.982773 146.346863,244.324051 
	C149.224686,243.512939 152.527832,244.297195 155.638153,244.170685 
	C156.534836,244.134216 157.400497,243.335434 158.280396,242.886154 
	C157.703903,242.208954 157.261520,241.261307 156.529282,240.898224 
	C151.567505,238.437820 142.223953,240.352203 138.445938,244.494446 
	C135.522949,247.699234 135.453842,251.590714 139.090714,253.910721 
	C142.201157,255.894928 145.939301,257.474701 149.566208,257.942047 
	C155.960739,258.765991 162.482056,258.606049 169.564178,259.429077 
	C179.181366,259.328064 188.806564,258.926605 198.414230,259.182678 
	C226.646713,259.935059 254.867523,261.464844 283.101715,261.722168 
	C314.548645,262.008789 346.006012,261.290558 377.457153,260.880219 
	C387.087280,260.754578 396.712891,260.225922 406.337311,259.807190 
	C407.253815,259.767273 408.147034,259.193024 409.977692,258.765472 
M96.030739,302.475922 
	C94.828217,303.367432 93.558365,304.181763 92.433807,305.162628 
	C83.283997,313.143585 80.828262,328.184479 86.780006,339.575958 
	C92.292114,350.125977 103.785049,355.365082 115.449722,352.462677 
	C125.845184,349.876068 132.183350,343.033813 134.363434,332.732758 
	C136.739639,321.505096 134.377258,311.360199 124.870316,304.108490 
	C116.080528,297.403778 106.449318,297.318420 96.030739,302.475922 
M217.463364,352.089417 
	C228.960556,349.008636 234.362228,342.435120 234.897202,330.873535 
	C235.439178,319.160797 229.800323,309.870361 219.500610,306.029388 
	C211.636246,303.096588 203.543701,304.000305 195.472778,304.780334 
	C195.472778,320.775391 195.472778,336.310791 195.472778,352.245117 
	C202.756866,352.245117 209.690567,352.245117 217.463364,352.089417 
M361.030731,306.674255 
	C361.030731,304.547638 361.030731,302.421021 361.030731,300.294403 
	C360.537537,300.022491 360.044342,299.750580 359.551117,299.478638 
	C358.824158,300.521698 357.472504,301.559631 357.463898,302.608551 
	C357.335236,318.254822 357.341492,333.902954 357.489532,349.548981 
	C357.499115,350.561676 358.922791,351.560974 359.688690,352.566498 
	C360.193085,352.270020 360.697510,351.973572 361.201904,351.677124 
	C361.201904,343.273712 361.201904,334.870270 361.201904,326.469086 
	C373.368927,326.469086 385.059204,326.469086 397.026917,326.469086 
	C397.026917,335.165192 397.026917,343.445251 397.026917,351.725311 
	C397.462982,352.026123 397.899048,352.326935 398.335083,352.627777 
	C399.108002,351.593689 400.544891,350.565613 400.554260,349.524658 
	C400.695160,333.878540 400.695038,318.230286 400.534821,302.584503 
	C400.524628,301.591736 398.926392,300.615204 398.066956,299.631104 
	C397.620667,299.973206 397.174377,300.315277 396.728088,300.657349 
	C396.728088,307.918030 396.728088,315.178711 396.728088,322.653778 
	C384.780182,322.653778 373.189270,322.653778 361.030945,322.653778 
	C361.030945,317.526276 361.030945,312.574677 361.030731,306.674255 
M459.032654,339.567261 
	C459.032654,337.459961 459.032654,335.352661 459.032654,333.303894 
	C470.050049,332.342072 469.989624,332.387482 475.963409,340.336060 
	C478.350800,343.512604 480.833954,346.689270 483.707214,349.407471 
	C486.397339,351.952423 489.789948,353.257568 493.807953,351.603821 
	C483.778290,348.226013 480.087677,338.990082 474.017242,332.067963 
	C475.790344,330.069061 477.321899,328.545776 478.620605,326.844757 
	C485.834351,317.396423 481.272705,306.198486 469.449493,304.772217 
	C465.077911,304.244873 460.589355,304.687073 455.936615,304.687073 
	C455.936615,320.815277 455.936615,336.359039 455.936615,351.902802 
	C456.368042,352.109558 456.799500,352.316284 457.230927,352.523041 
	C457.827484,351.521240 458.855133,350.553986 458.938751,349.511047 
	C459.177155,346.537598 459.031342,343.533386 459.032654,339.567261 
M297.933868,333.056396 
	C299.388275,333.917145 301.196136,334.476868 302.232391,335.693726 
	C305.679718,339.741821 308.672058,344.182404 312.181671,348.170837 
	C315.063019,351.445251 318.785675,353.174622 323.614960,351.684601 
	C313.832703,348.152039 309.968567,339.135681 303.905884,331.984772 
	C305.492828,330.280182 306.924988,328.909790 308.162140,327.381500 
	C311.798889,322.889038 312.865967,317.783661 310.762695,312.396576 
	C308.801331,307.373016 304.461609,305.150909 299.373169,304.756073 
	C294.953552,304.413116 290.486206,304.684692 285.574951,304.684692 
	C285.574951,320.204803 285.554749,335.144196 285.639008,350.082977 
	C285.642914,350.775818 286.581726,351.463379 287.085144,352.153412 
	C287.698792,351.421204 288.824432,350.702728 288.844513,349.954590 
	C288.994568,344.357300 288.926117,338.754150 288.926117,333.050812 
	C292.095245,333.050812 294.575165,333.050812 297.933868,333.056396 
M150.046494,307.925995 
	C150.050095,321.412140 150.006302,334.898743 150.134888,348.383698 
	C150.146973,349.649780 151.245911,350.905518 151.840240,352.166046 
	C152.401337,350.860046 153.394592,349.570953 153.446457,348.245026 
	C153.639587,343.307587 153.523544,338.358002 153.523544,333.502258 
	C164.191208,332.050262 164.281387,332.126404 169.868347,339.589478 
	C172.158600,342.648834 174.420761,345.781860 177.094650,348.487061 
	C179.989517,351.415833 183.508972,353.363220 188.306656,351.661499 
	C178.534195,348.154449 174.572388,339.269592 168.620880,332.195251 
	C170.662125,329.680481 172.649826,327.655273 174.142944,325.314575 
	C179.099091,317.545074 176.000504,307.712097 167.346603,305.572021 
	C162.327133,304.330658 156.825577,304.981384 151.540436,304.966095 
	C151.047150,304.964661 150.549973,306.301666 150.046494,307.925995 
M517.033936,327.890961 
	C518.335144,327.505768 519.636353,327.120605 520.937500,326.735443 
	C520.864990,326.186768 520.792419,325.638123 520.719910,325.089447 
	C515.218933,325.089447 509.717957,325.089447 504.098053,325.089447 
	C504.098053,318.917053 504.098053,313.512482 504.098053,308.199677 
	C510.341278,306.618805 516.805725,309.239716 522.545532,306.558655 
	C522.510132,306.089020 522.474731,305.619385 522.439270,305.149750 
	C515.125732,305.149750 507.812134,305.149750 500.480469,305.149750 
	C500.480469,320.815796 500.480469,336.375854 500.480469,352.253632 
	C507.307068,352.253632 513.790771,352.322296 520.269897,352.180481 
	C521.255005,352.158875 522.218750,351.160706 523.192383,350.614227 
	C522.172974,350.105377 521.165222,349.185883 520.132263,349.156677 
	C514.849731,349.007355 509.560760,349.087677 504.023010,349.087677 
	C504.023010,341.868469 504.023010,335.137756 504.023010,327.891418 
	C508.225037,327.891418 512.180298,327.891418 517.033936,327.890961 
M438.899261,325.061646 
	C433.657074,325.061646 428.414886,325.061646 423.222595,325.061646 
	C423.222595,318.723907 423.222595,313.333069 423.222595,307.735229 
	C426.780182,307.735229 429.962646,307.996216 433.080231,307.658264 
	C435.919464,307.350464 439.404419,309.106995 442.749847,305.055176 
	C434.136749,305.055176 426.830994,305.055176 419.379883,305.055176 
	C419.379883,320.818085 419.379883,336.267944 419.379883,351.899231 
	C427.086243,351.899231 434.595856,351.899231 442.105469,351.899231 
	C442.206329,351.112732 442.307190,350.326202 442.408051,349.539703 
	C436.155579,348.386261 429.532440,349.563202 423.131134,348.886749 
	C423.131134,341.759155 423.131134,335.037262 423.131134,327.888733 
	C427.741943,327.888733 432.045654,328.046448 436.323334,327.782532 
	C437.452698,327.712860 438.501770,326.342163 438.899261,325.061646 
M252.908310,304.713074 
	C251.684311,304.875214 250.460312,305.037323 249.344666,305.185120 
	C249.344666,321.046814 249.344666,336.460632 249.344666,351.951355 
	C257.055267,351.951355 264.472198,351.951355 271.953552,351.951355 
	C272.002777,351.202240 272.077820,350.296997 272.060181,350.295197 
	C265.675232,349.640381 259.283905,349.047455 252.959061,348.459473 
	C252.959061,341.645050 252.959061,334.918213 252.959061,327.849976 
	C256.318542,327.849976 259.290771,327.851257 262.263000,327.849731 
	C268.230896,327.846649 268.230896,327.846008 269.553284,324.912628 
	C263.911835,324.912628 258.513000,324.912628 252.895966,324.912628 
	C252.895966,318.944000 252.895966,313.554810 252.895966,308.142761 
	C259.054016,306.566742 265.556122,309.081482 271.292236,306.734924 
	C271.226318,306.061096 271.160400,305.387268 271.094482,304.713440 
	C265.338043,304.713440 259.581604,304.713440 252.908310,304.713074 
M226.389145,49.074139 
	C224.813202,47.213127 223.237259,45.352116 221.661331,43.491104 
	C221.079285,43.854614 220.497238,44.218128 219.915192,44.581642 
	C220.477142,46.052425 220.762512,47.719181 221.644119,48.963493 
	C229.876907,60.583447 238.193558,72.144234 246.529343,83.690804 
	C248.854507,86.911583 251.224396,90.112999 253.797714,93.132423 
	C254.427872,93.871841 255.939667,93.859901 257.046112,94.193405 
	C256.945618,93.187340 257.051361,92.098839 256.690765,91.196716 
	C256.269989,90.143913 255.466995,89.235703 254.786652,88.296043 
	C245.462860,75.418762 236.131638,62.546879 226.389145,49.074139 
M350.534119,82.062370 
	C358.452911,71.175629 366.407654,60.314629 374.244690,49.369335 
	C375.215759,48.013119 375.560944,46.208759 376.196167,44.612068 
	C375.559814,44.243408 374.923462,43.874748 374.287109,43.506088 
	C372.395874,45.979668 370.457581,48.418846 368.621307,50.932590 
	C359.011963,64.087440 349.400055,77.240791 339.894928,90.470741 
	C339.204071,91.432358 339.353760,92.997871 339.112610,94.282600 
	C340.335022,93.764465 341.958252,93.576935 342.707458,92.668526 
	C345.347198,89.467720 347.687073,86.019547 350.534119,82.062370 
M300.917786,66.431686 
	C300.919159,57.774174 301.005524,49.114956 300.832092,40.460945 
	C300.805450,39.131954 299.582092,37.826950 298.912201,36.510849 
	C298.276794,37.849888 297.129883,39.172161 297.085358,40.530563 
	C296.655243,53.651745 296.366882,66.778336 296.167572,79.905350 
	C296.142487,81.555099 296.865509,83.216209 297.241913,84.872047 
	C297.994354,84.828056 298.746796,84.784073 299.499237,84.740082 
	C299.969849,78.962456 300.440491,73.184830 300.917786,66.431686 
M210.616867,106.914040 
	C215.045792,109.003952 216.250214,115.798981 222.790573,115.774788 
	C220.236389,107.705658 191.955902,84.121559 185.061157,85.034782 
	C193.823410,92.513184 201.969498,99.465691 210.616867,106.914040 
M384.161285,102.630287 
	C380.909668,106.901596 374.750092,109.092033 373.964752,116.464691 
	C375.775360,115.642296 376.766571,115.429977 377.441620,114.849777 
	C387.640656,106.083611 397.822693,97.297096 407.927094,88.422394 
	C408.928497,87.542870 409.396088,86.055626 410.111420,84.850449 
	C409.721527,84.518608 409.331665,84.186768 408.941772,83.854935 
	C399.803619,88.496872 392.522186,95.706749 384.161285,102.630287 
z"/>
<path fill="#F9F3BC" opacity="1.000000" stroke="none" 
	d="
M179.105957,240.517746 
	C179.823135,231.604507 180.130508,222.634827 181.348114,213.790482 
	C183.477142,198.325684 192.662628,187.122665 204.770050,178.180298 
	C225.140717,163.134842 248.344345,154.334366 272.641235,148.004623 
	C277.278198,146.796616 282.048401,145.452255 286.161713,143.120514 
	C288.701996,141.680496 290.116180,138.253937 292.379456,135.137009 
	C294.630524,134.331573 296.695709,133.526932 298.416168,133.993500 
	C303.697052,135.425613 308.845795,137.344940 314.244690,139.313446 
	C315.044861,139.610016 315.646271,139.667984 316.168884,139.693970 
	C316.090027,139.661987 316.199371,139.531601 316.280029,139.905457 
	C317.827515,140.984741 319.240601,141.846802 320.769470,142.371521 
	C337.023346,147.949982 353.428741,153.117966 369.522827,159.121750 
	C383.681793,164.403656 396.989197,171.488861 408.778656,181.163986 
	C409.697357,181.917908 411.272247,181.872208 412.579987,182.279709 
	C412.617798,182.361252 412.705200,182.518356 412.553009,182.792633 
	C412.872070,183.388214 413.343323,183.709518 414.085266,184.255066 
	C424.257477,199.826569 429.928375,216.388718 429.129150,234.898392 
	C428.980347,238.345337 427.510651,240.258301 424.242645,240.648956 
	C419.459656,241.220749 414.643311,242.007767 409.853333,241.932159 
	C396.705383,241.724609 383.564484,240.753601 370.419495,240.726578 
	C309.474396,240.601273 248.528854,240.696365 187.583481,240.700119 
	C184.757645,240.700287 181.931793,240.581253 179.105957,240.517746 
M342.531219,155.560516 
	C343.785339,156.609894 344.878113,158.120422 346.322571,158.625702 
	C351.503845,160.438126 356.902405,161.646347 362.041290,163.559769 
	C379.090820,169.907928 393.593781,178.928665 397.492523,198.659622 
	C397.657166,199.492661 398.942139,200.104324 399.705170,200.819122 
	C400.246155,199.932037 401.197266,199.061737 401.234375,198.154037 
	C401.293884,196.699722 400.839722,195.195297 400.442932,193.756088 
	C397.462738,182.946472 390.658264,174.987091 381.604279,168.762573 
	C370.696289,161.263443 358.164673,157.756638 345.611847,154.353928 
	C344.816681,154.138367 343.804474,154.723480 342.531219,155.560516 
M403.562836,217.915237 
	C404.618591,218.920563 405.674347,219.925903 406.730133,220.931229 
	C406.971558,219.504745 407.487244,218.059326 407.390289,216.656235 
	C407.244354,214.544373 406.820801,212.416580 406.208801,210.388031 
	C405.934937,209.480164 404.917633,208.796570 404.237701,208.011200 
	C403.563843,208.960175 402.332123,209.907913 402.330017,210.858383 
	C402.325348,212.957886 402.939667,215.058762 403.562836,217.915237 
z"/>
<path fill="#454114" opacity="1.000000" stroke="none" 
	d="
M314.045929,139.074875 
	C308.845795,137.344940 303.697052,135.425613 298.416168,133.993500 
	C296.695709,133.526932 294.630524,134.331573 292.378113,134.762222 
	C267.347839,140.846252 241.841064,144.076324 218.835464,155.586975 
	C193.709869,168.158356 176.794235,187.816376 170.703278,215.750092 
	C169.690216,220.396118 170.083649,225.344666 169.770218,230.149704 
	C169.664246,231.774628 169.382416,233.388077 169.180939,235.006760 
	C168.526154,235.065109 167.871368,235.123459 167.216583,235.181808 
	C166.807251,233.141541 166.098022,231.110458 166.035080,229.059555 
	C165.420151,209.027405 173.400864,192.221054 185.733459,177.068787 
	C201.492783,157.706345 222.750977,147.749908 246.297241,141.849060 
	C260.152283,138.376877 274.101776,135.281830 288.006958,132.009537 
	C288.761841,131.831894 289.500122,131.583710 290.930359,130.252243 
	C290.318420,130.032608 289.620361,129.935455 289.107635,129.574768 
	C282.369904,124.834930 281.104584,119.395271 285.208527,113.001099 
	C289.381714,106.499054 297.762299,104.198135 303.915741,107.864937 
	C309.397430,111.131439 310.382874,116.837509 306.511719,125.666023 
	C304.819275,127.606636 303.513580,129.017334 301.808075,130.860001 
	C304.445496,131.647324 306.708801,132.322937 308.972076,132.998566 
	C322.226868,136.623505 335.580780,139.926422 348.707855,143.966278 
	C361.194672,147.809113 373.937317,151.371918 385.705414,156.894699 
	C419.876465,172.931213 433.622040,201.459259 432.689575,238.766388 
	C429.504669,241.264481 426.734131,243.997040 423.516357,244.709229 
	C418.381805,245.845657 412.943756,246.011993 407.644897,245.925552 
	C394.670990,245.713928 381.704010,244.769302 368.733032,244.745224 
	C305.826019,244.628387 242.918625,244.726868 180.011398,244.689987 
	C178.095291,244.688873 176.179581,244.038574 174.263687,243.690933 
	C175.663605,242.708786 177.063522,241.726639 178.784698,240.631119 
	C181.931793,240.581253 184.757645,240.700287 187.583481,240.700119 
	C248.528854,240.696365 309.474396,240.601273 370.419495,240.726578 
	C383.564484,240.753601 396.705383,241.724609 409.853333,241.932159 
	C414.643311,242.007767 419.459656,241.220749 424.242645,240.648956 
	C427.510651,240.258301 428.980347,238.345337 429.129150,234.898392 
	C429.928375,216.388718 424.257477,199.826569 414.038879,184.008942 
	C413.382935,183.198502 413.044067,182.858429 412.705200,182.518356 
	C412.705200,182.518356 412.617798,182.361252 412.459167,182.000900 
	C403.891602,170.623932 392.943542,162.512848 380.076416,158.233093 
	C359.038116,151.235489 337.516876,145.689774 316.199371,139.531601 
	C316.199371,139.531601 316.090027,139.661987 315.982391,139.446686 
	C315.265137,139.179214 314.655548,139.127045 314.045929,139.074875 
M291.486603,126.535858 
	C295.678497,129.578644 299.236847,128.456635 302.078613,124.627716 
	C303.308838,122.970146 303.967041,120.888023 305.151794,118.206573 
	C305.573395,113.738297 303.832672,110.767273 299.236908,109.940659 
	C294.027252,109.003616 288.580841,112.184593 287.072632,117.179794 
	C285.888824,121.100471 286.560272,124.420906 291.486603,126.535858 
z"/>
<path fill="#F8F2BC" opacity="1.000000" stroke="none" 
	d="
M174.012238,243.999054 
	C176.179581,244.038574 178.095291,244.688873 180.011398,244.689987 
	C242.918625,244.726868 305.826019,244.628387 368.733032,244.745224 
	C381.704010,244.769302 394.670990,245.713928 407.644897,245.925552 
	C412.943756,246.011993 418.381805,245.845657 423.516357,244.709229 
	C426.734131,243.997040 429.504669,241.264481 432.721741,239.195038 
	C435.547272,240.005890 438.126892,241.060120 441.003662,242.561768 
	C442.506226,243.773163 443.672058,245.106613 444.924622,245.193832 
	C448.616241,245.450867 452.342255,245.214218 456.268677,245.409851 
	C458.679413,247.688614 460.876251,249.728302 462.740356,252.002197 
	C459.660828,252.870438 456.929993,253.963135 454.164520,254.059372 
	C442.020660,254.482010 429.866913,254.816360 417.716522,254.823395 
	C332.906525,254.872498 248.096420,254.855896 163.286453,254.765564 
	C157.830627,254.759750 152.375641,253.963303 146.920273,253.534653 
	C147.833069,247.565033 152.457214,245.424393 160.504105,245.962067 
	C164.866653,246.253540 169.338333,244.912048 174.012238,243.999054 
z"/>
<path fill="#474315" opacity="1.000000" stroke="none" 
	d="
M456.054810,245.170776 
	C452.342255,245.214218 448.616241,245.450867 444.924622,245.193832 
	C443.672058,245.106613 442.506226,243.773163 441.383606,242.665817 
	C448.703400,242.346390 455.975616,241.983597 463.154938,242.638824 
	C465.208130,242.826187 468.188141,245.714737 468.621429,247.804581 
	C469.283417,250.997498 467.774200,254.601608 464.059296,255.750778 
	C460.438202,256.870941 456.635986,257.892822 452.883057,258.013031 
	C438.587891,258.470856 424.280518,258.546814 409.141632,258.642822 
	C406.308075,258.447906 404.310638,258.313141 402.313110,258.312439 
	C326.829163,258.286194 251.345184,258.266876 175.861221,258.281891 
	C173.557541,258.282349 171.253937,258.657532 168.950287,258.857971 
	C162.482056,258.606049 155.960739,258.765991 149.566208,257.942047 
	C145.939301,257.474701 142.201157,255.894928 139.090714,253.910721 
	C135.453842,251.590714 135.522949,247.699234 138.445938,244.494446 
	C142.223953,240.352203 151.567505,238.437820 156.529282,240.898224 
	C157.261520,241.261307 157.703903,242.208954 158.280396,242.886154 
	C157.400497,243.335434 156.534836,244.134216 155.638153,244.170685 
	C152.527832,244.297195 149.224686,243.512939 146.346863,244.324051 
	C144.009628,244.982773 142.177856,247.434906 140.121918,249.091675 
	C142.130615,250.569138 144.139313,252.046585 146.534149,253.529343 
	C152.375641,253.963303 157.830627,254.759750 163.286453,254.765564 
	C248.096420,254.855896 332.906525,254.872498 417.716522,254.823395 
	C429.866913,254.816360 442.020660,254.482010 454.164520,254.059372 
	C456.929993,253.963135 459.660828,252.870438 463.080750,251.907486 
	C466.001495,248.429382 465.510986,246.363098 461.421692,245.784882 
	C459.639404,245.532837 457.844177,245.372665 456.054810,245.170776 
z"/>
<path fill="#E2DDAA" opacity="1.000000" stroke="none" 
	d="
M169.257233,259.143524 
	C171.253937,258.657532 173.557541,258.282349 175.861221,258.281891 
	C251.345184,258.266876 326.829163,258.286194 402.313110,258.312439 
	C404.310638,258.313141 406.308075,258.447906 408.678345,258.693481 
	C408.147034,259.193024 407.253815,259.767273 406.337311,259.807190 
	C396.712891,260.225922 387.087280,260.754578 377.457153,260.880219 
	C346.006012,261.290558 314.548645,262.008789 283.101715,261.722168 
	C254.867523,261.464844 226.646713,259.935059 198.414230,259.182678 
	C188.806564,258.926605 179.181366,259.328064 169.257233,259.143524 
z"/>
<path fill="#776E19" opacity="1.000000" stroke="none" 
	d="
M96.340271,302.278076 
	C106.449318,297.318420 116.080528,297.403778 124.870316,304.108490 
	C134.377258,311.360199 136.739639,321.505096 134.363434,332.732758 
	C132.183350,343.033813 125.845184,349.876068 115.449722,352.462677 
	C103.785049,355.365082 92.292114,350.125977 86.780006,339.575958 
	C80.828262,328.184479 83.283997,313.143585 92.433807,305.162628 
	C93.558365,304.181763 94.828217,303.367432 96.340271,302.278076 
M88.445305,318.489624 
	C88.132362,320.459656 87.693275,322.419098 87.527534,324.401459 
	C86.638107,335.038910 93.044525,345.700836 102.100052,348.772095 
	C111.815979,352.067352 121.889359,348.776794 127.361809,339.972168 
	C132.812164,331.203064 132.869843,321.899811 127.913879,312.939880 
	C123.576508,305.098358 116.479980,301.451080 107.514915,302.198486 
	C97.783455,303.009796 91.872551,308.755066 88.445305,318.489624 
z"/>
<path fill="#7E7524" opacity="1.000000" stroke="none" 
	d="
M217.043823,352.167267 
	C209.690567,352.245117 202.756866,352.245117 195.472778,352.245117 
	C195.472778,336.310791 195.472778,320.775391 195.472778,304.780334 
	C203.543701,304.000305 211.636246,303.096588 219.500610,306.029388 
	C229.800323,309.870361 235.439178,319.160797 234.897202,330.873535 
	C234.362228,342.435120 228.960556,349.008636 217.043823,352.167267 
M218.065140,309.020020 
	C211.850830,306.747437 205.542969,306.732910 199.112305,307.741608 
	C199.112305,321.795410 199.112305,335.351929 199.112305,349.355316 
	C202.823929,349.517853 206.280930,349.842651 209.732224,349.790466 
	C225.044083,349.558899 232.666519,340.936035 230.919022,325.785950 
	C230.026245,318.045929 225.646393,312.729492 218.065140,309.020020 
z"/>
<path fill="#7E7524" opacity="1.000000" stroke="none" 
	d="
M361.030823,307.148651 
	C361.030945,312.574677 361.030945,317.526276 361.030945,322.653778 
	C373.189270,322.653778 384.780182,322.653778 396.728088,322.653778 
	C396.728088,315.178711 396.728088,307.918030 396.728088,300.657349 
	C397.174377,300.315277 397.620667,299.973206 398.066956,299.631104 
	C398.926392,300.615204 400.524628,301.591736 400.534821,302.584503 
	C400.695038,318.230286 400.695160,333.878540 400.554260,349.524658 
	C400.544891,350.565613 399.108002,351.593689 398.335083,352.627777 
	C397.899048,352.326935 397.462982,352.026123 397.026917,351.725311 
	C397.026917,343.445251 397.026917,335.165192 397.026917,326.469086 
	C385.059204,326.469086 373.368927,326.469086 361.201904,326.469086 
	C361.201904,334.870270 361.201904,343.273712 361.201904,351.677124 
	C360.697510,351.973572 360.193085,352.270020 359.688690,352.566498 
	C358.922791,351.560974 357.499115,350.561676 357.489532,349.548981 
	C357.341492,333.902954 357.335236,318.254822 357.463898,302.608551 
	C357.472504,301.559631 358.824158,300.521698 359.551117,299.478638 
	C360.044342,299.750580 360.537537,300.022491 361.030731,300.294403 
	C361.030731,302.421021 361.030731,304.547638 361.030823,307.148651 
z"/>
<path fill="#766D18" opacity="1.000000" stroke="none" 
	d="
M459.034668,340.054260 
	C459.031342,343.533386 459.177155,346.537598 458.938751,349.511047 
	C458.855133,350.553986 457.827484,351.521240 457.230927,352.523041 
	C456.799500,352.316284 456.368042,352.109558 455.936615,351.902802 
	C455.936615,336.359039 455.936615,320.815277 455.936615,304.687073 
	C460.589355,304.687073 465.077911,304.244873 469.449493,304.772217 
	C481.272705,306.198486 485.834351,317.396423 478.620605,326.844757 
	C477.321899,328.545776 475.790344,330.069061 474.017242,332.067963 
	C480.087677,338.990082 483.778290,348.226013 493.807953,351.603821 
	C489.789948,353.257568 486.397339,351.952423 483.707214,349.407471 
	C480.833954,346.689270 478.350800,343.512604 475.963409,340.336060 
	C469.989624,332.387482 470.050049,332.342072 459.032654,333.303894 
	C459.032654,335.352661 459.032654,337.459961 459.034668,340.054260 
M477.750183,321.684784 
	C479.257080,310.158081 472.060364,304.795776 459.348419,308.058075 
	C459.348419,315.252197 459.348419,322.463776 459.348419,329.619995 
	C470.741852,331.270477 473.231750,330.256317 477.750183,321.684784 
z"/>
<path fill="#776E19" opacity="1.000000" stroke="none" 
	d="
M297.494446,333.053589 
	C294.575165,333.050812 292.095245,333.050812 288.926117,333.050812 
	C288.926117,338.754150 288.994568,344.357300 288.844513,349.954590 
	C288.824432,350.702728 287.698792,351.421204 287.085144,352.153412 
	C286.581726,351.463379 285.642914,350.775818 285.639008,350.082977 
	C285.554749,335.144196 285.574951,320.204803 285.574951,304.684692 
	C290.486206,304.684692 294.953552,304.413116 299.373169,304.756073 
	C304.461609,305.150909 308.801331,307.373016 310.762695,312.396576 
	C312.865967,317.783661 311.798889,322.889038 308.162140,327.381500 
	C306.924988,328.909790 305.492828,330.280182 303.905884,331.984772 
	C309.968567,339.135681 313.832703,348.152039 323.614960,351.684601 
	C318.785675,353.174622 315.063019,351.445251 312.181671,348.170837 
	C308.672058,344.182404 305.679718,339.741821 302.232391,335.693726 
	C301.196136,334.476868 299.388275,333.917145 297.494446,333.053589 
M292.758575,307.253418 
	C291.485870,308.123352 289.155609,308.941681 289.110229,309.871460 
	C288.790466,316.427856 288.940460,323.007172 288.940460,330.197632 
	C291.607758,330.197632 293.718109,330.172882 295.827728,330.202240 
	C302.430267,330.294037 307.413818,325.788971 308.004486,319.171143 
	C308.599365,312.505737 305.316528,308.573578 298.088348,307.426025 
	C296.628510,307.194244 295.119476,307.272064 292.758575,307.253418 
z"/>
<path fill="#79701C" opacity="1.000000" stroke="none" 
	d="
M150.050537,307.471619 
	C150.549973,306.301666 151.047150,304.964661 151.540436,304.966095 
	C156.825577,304.981384 162.327133,304.330658 167.346603,305.572021 
	C176.000504,307.712097 179.099091,317.545074 174.142944,325.314575 
	C172.649826,327.655273 170.662125,329.680481 168.620880,332.195251 
	C174.572388,339.269592 178.534195,348.154449 188.306656,351.661499 
	C183.508972,353.363220 179.989517,351.415833 177.094650,348.487061 
	C174.420761,345.781860 172.158600,342.648834 169.868347,339.589478 
	C164.281387,332.126404 164.191208,332.050262 153.523544,333.502258 
	C153.523544,338.358002 153.639587,343.307587 153.446457,348.245026 
	C153.394592,349.570953 152.401337,350.860046 151.840240,352.166046 
	C151.245911,350.905518 150.146973,349.649780 150.134888,348.383698 
	C150.006302,334.898743 150.050095,321.412140 150.050537,307.471619 
M154.952499,329.978912 
	C158.979416,329.573914 163.519943,330.207764 166.916794,328.528381 
	C172.462769,325.786499 174.344055,317.809845 171.770203,312.929138 
	C169.499054,308.622437 160.483765,305.554749 155.369644,307.472687 
	C154.616913,307.754944 153.600677,308.757721 153.606384,309.419373 
	C153.664474,316.167999 153.909058,322.915009 154.952499,329.978912 
z"/>
<path fill="#837A2E" opacity="1.000000" stroke="none" 
	d="
M516.584717,327.891174 
	C512.180298,327.891418 508.225037,327.891418 504.023010,327.891418 
	C504.023010,335.137756 504.023010,341.868469 504.023010,349.087677 
	C509.560760,349.087677 514.849731,349.007355 520.132263,349.156677 
	C521.165222,349.185883 522.172974,350.105377 523.192383,350.614227 
	C522.218750,351.160706 521.255005,352.158875 520.269897,352.180481 
	C513.790771,352.322296 507.307068,352.253632 500.480469,352.253632 
	C500.480469,336.375854 500.480469,320.815796 500.480469,305.149750 
	C507.812134,305.149750 515.125732,305.149750 522.439270,305.149750 
	C522.474731,305.619385 522.510132,306.089020 522.545532,306.558655 
	C516.805725,309.239716 510.341278,306.618805 504.098053,308.199677 
	C504.098053,313.512482 504.098053,318.917053 504.098053,325.089447 
	C509.717957,325.089447 515.218933,325.089447 520.719910,325.089447 
	C520.792419,325.638123 520.864990,326.186768 520.937500,326.735443 
	C519.636353,327.120605 518.335144,327.505768 516.584717,327.891174 
z"/>
<path fill="#847B2F" opacity="1.000000" stroke="none" 
	d="
M439.243469,325.315247 
	C438.501770,326.342163 437.452698,327.712860 436.323334,327.782532 
	C432.045654,328.046448 427.741943,327.888733 423.131134,327.888733 
	C423.131134,335.037262 423.131134,341.759155 423.131134,348.886749 
	C429.532440,349.563202 436.155579,348.386261 442.408051,349.539703 
	C442.307190,350.326202 442.206329,351.112732 442.105469,351.899231 
	C434.595856,351.899231 427.086243,351.899231 419.379883,351.899231 
	C419.379883,336.267944 419.379883,320.818085 419.379883,305.055176 
	C426.830994,305.055176 434.136749,305.055176 442.749847,305.055176 
	C439.404419,309.106995 435.919464,307.350464 433.080231,307.658264 
	C429.962646,307.996216 426.780182,307.735229 423.222595,307.735229 
	C423.222595,313.333069 423.222595,318.723907 423.222595,325.061646 
	C428.414886,325.061646 433.657074,325.061646 439.243469,325.315247 
z"/>
<path fill="#7C7323" opacity="1.000000" stroke="none" 
	d="
M253.366730,304.713257 
	C259.581604,304.713440 265.338043,304.713440 271.094482,304.713440 
	C271.160400,305.387268 271.226318,306.061096 271.292236,306.734924 
	C265.556122,309.081482 259.054016,306.566742 252.895966,308.142761 
	C252.895966,313.554810 252.895966,318.944000 252.895966,324.912628 
	C258.513000,324.912628 263.911835,324.912628 269.553284,324.912628 
	C268.230896,327.846008 268.230896,327.846649 262.263000,327.849731 
	C259.290771,327.851257 256.318542,327.849976 252.959061,327.849976 
	C252.959061,334.918213 252.959061,341.645050 252.959061,348.459473 
	C259.283905,349.047455 265.675232,349.640381 272.060181,350.295197 
	C272.077820,350.296997 272.002777,351.202240 271.953552,351.951355 
	C264.472198,351.951355 257.055267,351.951355 249.344666,351.951355 
	C249.344666,336.460632 249.344666,321.046814 249.344666,305.185120 
	C250.460312,305.037323 251.684311,304.875214 253.366730,304.713257 
z"/>
<path fill="#F7ED9B" opacity="1.000000" stroke="none" 
	d="
M226.595673,49.373909 
	C236.131638,62.546879 245.462860,75.418762 254.786652,88.296043 
	C255.466995,89.235703 256.269989,90.143913 256.690765,91.196716 
	C257.051361,92.098839 256.945618,93.187340 257.046112,94.193405 
	C255.939667,93.859901 254.427872,93.871841 253.797714,93.132423 
	C251.224396,90.112999 248.854507,86.911583 246.529343,83.690804 
	C238.193558,72.144234 229.876907,60.583447 221.644119,48.963493 
	C220.762512,47.719181 220.477142,46.052425 219.915192,44.581642 
	C220.497238,44.218128 221.079285,43.854614 221.661331,43.491104 
	C223.237259,45.352116 224.813202,47.213127 226.595673,49.373909 
z"/>
<path fill="#F7ED9A" opacity="1.000000" stroke="none" 
	d="
M350.337402,82.363792 
	C347.687073,86.019547 345.347198,89.467720 342.707458,92.668526 
	C341.958252,93.576935 340.335022,93.764465 339.112610,94.282600 
	C339.353760,92.997871 339.204071,91.432358 339.894928,90.470741 
	C349.400055,77.240791 359.011963,64.087440 368.621307,50.932590 
	C370.457581,48.418846 372.395874,45.979668 374.287109,43.506088 
	C374.923462,43.874748 375.559814,44.243408 376.196167,44.612068 
	C375.560944,46.208759 375.215759,48.013119 374.244690,49.369335 
	C366.407654,60.314629 358.452911,71.175629 350.337402,82.363792 
z"/>
<path fill="#F7EE9D" opacity="1.000000" stroke="none" 
	d="
M300.914459,66.919449 
	C300.440491,73.184830 299.969849,78.962456 299.499237,84.740082 
	C298.746796,84.784073 297.994354,84.828056 297.241913,84.872047 
	C296.865509,83.216209 296.142487,81.555099 296.167572,79.905350 
	C296.366882,66.778336 296.655243,53.651745 297.085358,40.530563 
	C297.129883,39.172161 298.276794,37.849888 298.912201,36.510849 
	C299.582092,37.826950 300.805450,39.131954 300.832092,40.460945 
	C301.005524,49.114956 300.919159,57.774174 300.914459,66.919449 
z"/>
<path fill="#F7ED9A" opacity="1.000000" stroke="none" 
	d="
M210.366226,106.666122 
	C201.969498,99.465691 193.823410,92.513184 185.061157,85.034782 
	C191.955902,84.121559 220.236389,107.705658 222.790573,115.774788 
	C216.250214,115.798981 215.045792,109.003952 210.366226,106.666122 
z"/>
<path fill="#F7ED9B" opacity="1.000000" stroke="none" 
	d="
M384.447449,102.422775 
	C392.522186,95.706749 399.803619,88.496872 408.941772,83.854935 
	C409.331665,84.186768 409.721527,84.518608 410.111420,84.850449 
	C409.396088,86.055626 408.928497,87.542870 407.927094,88.422394 
	C397.822693,97.297096 387.640656,106.083611 377.441620,114.849777 
	C376.766571,115.429977 375.775360,115.642296 373.964752,116.464691 
	C374.750092,109.092033 380.909668,106.901596 384.447449,102.422775 
z"/>
<path fill="#ECE7B6" opacity="1.000000" stroke="none" 
	d="
M308.962402,132.595459 
	C306.708801,132.322937 304.445496,131.647324 301.808075,130.860001 
	C303.513580,129.017334 304.819275,127.606636 306.407532,126.032913 
	C307.444336,127.977364 308.198547,130.084854 308.962402,132.595459 
z"/>
<path fill="#F6F5F1" opacity="1.000000" stroke="none" 
	d="
M316.280029,139.905457 
	C337.516876,145.689774 359.038116,151.235489 380.076416,158.233093 
	C392.943542,162.512848 403.891602,170.623932 412.421356,181.919357 
	C411.272247,181.872208 409.697357,181.917908 408.778656,181.163986 
	C396.989197,171.488861 383.681793,164.403656 369.522827,159.121750 
	C353.428741,153.117966 337.023346,147.949982 320.769470,142.371521 
	C319.240601,141.846802 317.827515,140.984741 316.280029,139.905457 
z"/>
<path fill="#474314" opacity="1.000000" stroke="none" 
	d="
M342.712219,155.248322 
	C343.804474,154.723480 344.816681,154.138367 345.611847,154.353928 
	C358.164673,157.756638 370.696289,161.263443 381.604279,168.762573 
	C390.658264,174.987091 397.462738,182.946472 400.442932,193.756088 
	C400.839722,195.195297 401.293884,196.699722 401.234375,198.154037 
	C401.197266,199.061737 400.246155,199.932037 399.705170,200.819122 
	C398.942139,200.104324 397.657166,199.492661 397.492523,198.659622 
	C393.593781,178.928665 379.090820,169.907928 362.041290,163.559769 
	C356.902405,161.646347 351.503845,160.438126 346.322571,158.625702 
	C344.878113,158.120422 343.785339,156.609894 342.712219,155.248322 
z"/>
<path fill="#4F4B1C" opacity="1.000000" stroke="none" 
	d="
M403.432129,217.537155 
	C402.939667,215.058762 402.325348,212.957886 402.330017,210.858383 
	C402.332123,209.907913 403.563843,208.960175 404.237701,208.011200 
	C404.917633,208.796570 405.934937,209.480164 406.208801,210.388031 
	C406.820801,212.416580 407.244354,214.544373 407.390289,216.656235 
	C407.487244,218.059326 406.971558,219.504745 406.730133,220.931244 
	C405.674347,219.925903 404.618591,218.920563 403.432129,217.537155 
z"/>
<path fill="#F6F5F1" opacity="1.000000" stroke="none" 
	d="
M412.553009,182.792633 
	C413.044067,182.858429 413.382935,183.198502 413.768188,183.784698 
	C413.343323,183.709518 412.872070,183.388214 412.553009,182.792633 
z"/>
<path fill="#F6F5F1" opacity="1.000000" stroke="none" 
	d="
M314.244690,139.313446 
	C314.655548,139.127045 315.265137,139.179214 316.061218,139.478668 
	C315.646271,139.667984 315.044861,139.610016 314.244690,139.313446 
z"/>
<path fill="#F6F6F2" opacity="1.000000" stroke="none" 
	d="
M290.963837,125.977631 
	C286.560272,124.420906 285.888824,121.100471 287.072632,117.179794 
	C288.580841,112.184593 294.027252,109.003616 299.236908,109.940659 
	C303.832672,110.767273 305.573395,113.738297 304.704651,118.436485 
	C301.499664,115.531219 298.196625,115.304695 294.522919,116.771523 
	C290.003998,118.575844 291.155670,122.526031 290.963837,125.977631 
z"/>
<path fill="#F6F0BB" opacity="1.000000" stroke="none" 
	d="
M291.225220,126.256744 
	C291.155670,122.526031 290.003998,118.575844 294.522919,116.771523 
	C298.196625,115.304695 301.499664,115.531219 304.571289,118.832573 
	C303.967041,120.888023 303.308838,122.970146 302.078613,124.627716 
	C299.236847,128.456635 295.678497,129.578644 291.225220,126.256744 
z"/>
<path fill="#F6F5F1" opacity="1.000000" stroke="none" 
	d="
M456.268677,245.409851 
	C457.844177,245.372665 459.639404,245.532837 461.421692,245.784882 
	C465.510986,246.363098 466.001495,248.429382 463.413513,251.673279 
	C460.876251,249.728302 458.679413,247.688614 456.268677,245.409851 
z"/>
<path fill="#FDFDFC" opacity="1.000000" stroke="none" 
	d="
M88.595360,318.102051 
	C91.872551,308.755066 97.783455,303.009796 107.514915,302.198486 
	C116.479980,301.451080 123.576508,305.098358 127.913879,312.939880 
	C132.869843,321.899811 132.812164,331.203064 127.361809,339.972168 
	C121.889359,348.776794 111.815979,352.067352 102.100052,348.772095 
	C93.044525,345.700836 86.638107,335.038910 87.527534,324.401459 
	C87.693275,322.419098 88.132362,320.459656 88.595360,318.102051 
z"/>
<path fill="#FDFDFC" opacity="1.000000" stroke="none" 
	d="
M218.428497,309.162140 
	C225.646393,312.729492 230.026245,318.045929 230.919022,325.785950 
	C232.666519,340.936035 225.044083,349.558899 209.732224,349.790466 
	C206.280930,349.842651 202.823929,349.517853 199.112305,349.355316 
	C199.112305,335.351929 199.112305,321.795410 199.112305,307.741608 
	C205.542969,306.732910 211.850830,306.747437 218.428497,309.162140 
z"/>
<path fill="#FCFCFA" opacity="1.000000" stroke="none" 
	d="
M477.595337,322.059814 
	C473.231750,330.256317 470.741852,331.270477 459.348419,329.619995 
	C459.348419,322.463776 459.348419,315.252197 459.348419,308.058075 
	C472.060364,304.795776 479.257080,310.158081 477.595337,322.059814 
z"/>
<path fill="#FDFCFB" opacity="1.000000" stroke="none" 
	d="
M293.195862,307.230286 
	C295.119476,307.272064 296.628510,307.194244 298.088348,307.426025 
	C305.316528,308.573578 308.599365,312.505737 308.004486,319.171143 
	C307.413818,325.788971 302.430267,330.294037 295.827728,330.202240 
	C293.718109,330.172882 291.607758,330.197632 288.940460,330.197632 
	C288.940460,323.007172 288.790466,316.427856 289.110229,309.871460 
	C289.155609,308.941681 291.485870,308.123352 293.195862,307.230286 
z"/>
<path fill="#F8F8F4" opacity="1.000000" stroke="none" 
	d="
M154.526978,329.820679 
	C153.909058,322.915009 153.664474,316.167999 153.606384,309.419373 
	C153.600677,308.757721 154.616913,307.754944 155.369644,307.472687 
	C160.483765,305.554749 169.499054,308.622437 171.770203,312.929138 
	C174.344055,317.809845 172.462769,325.786499 166.916794,328.528381 
	C163.519943,330.207764 158.979416,329.573914 154.526978,329.820679 
z"/>
</svg>